<?xml version="1.0" encoding="UTF-8"?>
<svg xmlns="http://www.w3.org/2000/svg" width="333" height="58" viewBox="0 0 333 58" role="img" aria-label="SQRATCH logo">
  <title>SQRATCH logo</title>
  <path d="M 267.625 8.875 L 267.125 9.5 L 267.25 50.625 L 267.625 51 L 275.625 51.125 L 277.25 50.75 L 277.375 35.375 L 278 34.75 L 297.375 34.625 L 298.25 35.5 L 298.25 50.625 L 298.625 51 L 306.625 51.125 L 308.25 50.75 L 308.25 9.125 L 306.625 8.75 L 298.625 8.875 L 298.25 9.25 L 298.25 24.375 L 297.75 25.375 L 278.25 25.5 L 277.375 24.625 L 277.25 9.125 L 276.375 8.75 Z M 182 8.875 L 181.5 9.375 L 181.375 17.25 L 181.75 17.75 L 196.125 17.875 L 196.875 18.5 L 196.75 50.375 L 197 50.875 L 197.5 51.125 L 206.625 51 L 206.875 50.625 L 206.875 18.375 L 207.375 17.875 L 221.875 17.75 L 222.125 17.375 L 222.125 9.5 L 221.875 9 L 221.375 8.75 Z M 161.25 8.875 L 155.125 21.75 L 153.875 25.125 L 153.125 26.125 L 152.875 27.375 L 148.25 37 L 147 40.375 L 145 44.25 L 144.875 45.125 L 142.375 50.125 L 142.375 50.75 L 142.625 51 L 150.625 51.125 L 152.25 50.75 L 155.125 44.375 L 156.375 43.375 L 174.75 43.375 L 175.875 44.125 L 178 49.375 L 179.25 51 L 188.625 51 L 189 50.5 L 188.875 49.75 L 182 35.125 L 181.875 34.25 L 173 15.125 L 170.625 9.25 L 169.25 8.75 Z M 165.375 21.25 L 166.125 21.875 L 167.125 25 L 171.75 34.75 L 171.75 35.375 L 171.125 35.875 L 161.125 35.875 L 159.375 35.5 L 160.125 33.125 L 164.625 23.25 L 164.875 21.75 Z M 100 9 L 99.75 9.5 L 99.75 50.375 L 100 50.875 L 100.5 51.125 L 108.375 51.125 L 109.25 50.75 L 109.5 37 L 110.25 36.375 L 117.125 36.375 L 118.875 38.25 L 127.5 51 L 138.625 51 L 138.75 50.25 L 128.625 35.5 L 133.75 31.5 L 135.625 28.625 L 136.75 26 L 137.125 22.25 L 136.875 19.25 L 135.75 16 L 133.875 13.5 L 132.375 12 L 129.5 10.25 L 125.25 9 L 122.25 8.75 L 100.5 8.75 Z M 109.375 18.25 L 110.25 17.375 L 121.75 17.375 L 123.625 17.875 L 125.875 19.625 L 126.875 21.75 L 126.875 24.25 L 125.25 26.875 L 124.125 27.875 L 120.375 28.875 L 110 28.75 L 109.375 28 Z M 240.5 8.125 L 236.25 9.125 L 231.5 11.25 L 228.625 13.125 L 225.125 16.625 L 222.125 21.5 L 221 25 L 220.5 30.875 L 221.125 35.375 L 223.125 40.375 L 226.125 44.5 L 228.75 46.75 L 232 48.875 L 236.25 50.625 L 241.5 51.75 L 247.5 51.75 L 253.125 50.625 L 258 48.75 L 262.75 45.5 L 262.75 44.875 L 258.5 38 L 257.5 37.875 L 254.75 39.875 L 250.625 41.875 L 247.5 42.125 L 246.125 42.625 L 240.75 41.875 L 238 40.875 L 235.25 39 L 233 36.625 L 232 34.875 L 231 31.375 L 231 28.5 L 231.875 25 L 233.125 22.875 L 237.125 19.25 L 239.75 18 L 243 17.375 L 246.625 17.375 L 250 18 L 254.5 20.125 L 256.5 21.875 L 257.375 21.875 L 262.75 15.125 L 262.875 14.375 L 258.375 11.125 L 253.625 9.125 L 247.75 8 Z M 56.375 11.25 L 52.375 14.125 L 50.25 16.375 L 48.25 19.25 L 46.25 24 L 45.5 28.625 L 45.5 30.625 L 46.125 35.125 L 47 37.875 L 48.25 40.375 L 51.125 44.25 L 53.875 46.625 L 56.875 48.625 L 62 50.75 L 67.25 51.75 L 73.375 51.75 L 78.375 50.875 L 82.75 56.375 L 83.375 57.875 L 84 57.875 L 84.625 57 L 89.625 53.75 L 90.75 52.625 L 86.75 46.75 L 90.75 42.5 L 92.75 39.375 L 93 38.125 L 93.75 37 L 94.625 33.375 L 94.875 31 L 94.625 26.125 L 93.75 22.625 L 91.75 18.5 L 90.125 16.375 L 87 13.25 L 84 11.125 L 79.25 9.125 L 75.375 8.125 L 70.375 7.75 L 66 8 L 60.625 9.25 Z M 71.625 17.375 L 75.125 18 L 77.375 18.875 L 79.5 20.125 L 82 22.5 L 83.875 25.75 L 84.5 30.625 L 83.75 34.125 L 81.75 37.375 L 80.5 38.25 L 78.125 35.5 L 75.5 31.625 L 74.375 31.25 L 67.875 35.75 L 68 36.75 L 71.625 41.625 L 70.25 42.25 L 67 42 L 63.75 41 L 61.375 39.75 L 57.875 36.375 L 56.125 32.375 L 56.125 27.25 L 56.875 25 L 58.125 22.875 L 61.125 20 L 65.25 18 L 69.25 17.375 Z M 28.375 8.125 L 23.375 7.75 L 18.625 8 L 13.5 9.25 L 8.5 12 L 7 13.25 L 5 16 L 4 19 L 4.125 23.875 L 5.125 26.5 L 8 29.75 L 10.75 31.5 L 13.625 32.75 L 18 33.875 L 26.375 35 L 28.875 35.875 L 30.875 37.5 L 31.25 38.875 L 30.875 40.625 L 29.5 41.875 L 27.125 42.875 L 22.5 43.25 L 19.125 42.875 L 15 41.75 L 11.25 39.875 L 7.5 36.875 L 6.75 36.875 L 1.875 44 L 4.5 46.5 L 8.5 48.875 L 13.25 50.625 L 18.5 51.625 L 26.625 51.625 L 31 50.75 L 35.5 48.75 L 39.625 45 L 40.875 42.875 L 41.75 39.5 L 41.625 35.25 L 40.625 32.375 L 37.625 29.125 L 34.125 27.25 L 30.875 26.25 L 17.75 23.875 L 14.875 21.75 L 14.875 19.125 L 16.25 17.75 L 17.875 17 L 21.625 16.375 L 27.75 17.125 L 32.5 19.125 L 34.625 20.875 L 35.75 20.125 L 40 15 L 40.125 14.125 L 38.125 12.25 L 35.125 10.375 Z M 318.75 6.25 L 316.5 7.125 L 314 9.375 L 313.25 10.5 L 312.25 13.875 L 312.5 16.25 L 313 17.875 L 314.125 19.625 L 316.375 21.625 L 318.875 22.625 L 322.625 22.625 L 324.75 21.75 L 326.375 20.625 L 327.75 18.875 L 328.75 16.875 L 328.75 12 L 327.625 9.75 L 326.25 8.125 L 325 7.25 L 322.625 6.25 Z M 321.25 8 L 324 9 L 325.875 10.75 L 327 13.125 L 327 15.625 L 325.875 18.125 L 324.75 18.875 L 323.875 20 L 320.375 20.875 L 317.875 20.125 L 315.875 18.625 L 315.125 17.625 L 314.375 15.625 L 314.375 13.25 L 315.125 11.25 L 317.25 9 L 319.125 8.25 Z M 317.875 10.625 L 317.5 11.125 L 317.625 18 L 318.125 18.375 L 319.75 18.25 L 320 17.875 L 319.875 16.25 L 320.5 15.625 L 322.375 18.375 L 324 18.25 L 324.25 17.375 L 323.25 15.75 L 323.25 15.125 L 324.25 13.375 L 323.75 11.125 L 322.25 10.5 Z M 320 12.875 L 321.125 12.5 L 321.625 13.125 L 321.25 13.75 L 320.375 13.875 Z" fill="#9B8DC1" fill-rule="evenodd" clip-rule="evenodd"/>
</svg>
